<?xml version="1.0" encoding="UTF-8"?>
<svg id="_Слой_2" data-name="Слой 2" xmlns="http://www.w3.org/2000/svg" viewBox="0 0 100 100">
  <defs>
    <style>
      .cls-1 {
        fill: #fff;
      }

      .cls-1, .cls-2 {
        stroke-width: 0px;
      }

      .cls-2 {
        fill: #3890fe;
      }
    </style>
  </defs>
  <g id="_1" data-name="1">
    <g>
      <rect class="cls-2" width="100" height="100"/>
      <g id="D82_Business_commerce_finance_money" data-name="D82, Business, commerce, finance, money">
        <g>
          <path class="cls-1" d="M53.9,42c0-4.3-.5-8.3-1.4-11.3-.8-2.7-1.9-4.3-2.9-4.3s-2.1,1.6-2.9,4.3c-.9,3-1.4,7-1.4,11.3s.5,8.3,1.4,11.3c.8,2.7,1.9,4.3,2.9,4.3s2.1-1.6,2.9-4.3c.9-3,1.4-7,1.4-11.3Z"/>
          <path class="cls-1" d="M65.7,26.4h-14c2.2,2.7,3.4,9.3,3.4,15.6s-1.1,12.9-3.4,15.6h14c.3-3.6,3.3-6.6,6.9-6.9v-17.4c-3.6-.3-6.6-3.3-6.9-6.9ZM63.3,45.1c-1.7,0-3.1-1.4-3.1-3.1s1.4-3.1,3.1-3.1,3.1,1.4,3.1,3.1-1.4,3.1-3.1,3.1Z"/>
          <path class="cls-1" d="M51.4,72v-4.4h-3.8v4.4c0,.3-.3.6-.6.6h-1.2l3.7,4.6,3.7-4.6h-1.2c-.3,0-.6-.3-.6-.6Z"/>
          <path class="cls-1" d="M63.3,40.1c-1,0-1.9.8-1.9,1.9s.8,1.9,1.9,1.9,1.9-.8,1.9-1.9-.9-1.9-1.9-1.9Z"/>
          <path class="cls-1" d="M35.8,40.1c-1,0-1.9.8-1.9,1.9s.8,1.9,1.9,1.9,1.9-.8,1.9-1.9-.9-1.9-1.9-1.9Z"/>
          <path class="cls-1" d="M21.4,21.4v41.3h56.3V21.4H21.4ZM73.9,51.3c0,.3-.3.6-.6.6-3.5,0-6.3,2.8-6.3,6.3,0,.3-.3.6-.6.6h-33.7c-.3,0-.6-.3-.6-.6,0-3.5-2.8-6.3-6.3-6.3-.3,0-.6-.3-.6-.6v-18.6c0-.3.3-.6.6-.6,3.5,0,6.3-2.8,6.3-6.3,0-.3.3-.6.6-.6h33.7c.3,0,.6.3.6.6,0,3.5,2.8,6.3,6.3,6.3.3,0,.6.3.6.6v18.6h0Z"/>
          <path class="cls-1" d="M47.3,26.4h-14c-.3,3.6-3.3,6.6-6.9,6.9v17.5c3.6.2,6.6,3.2,6.9,6.8h14c-2.2-2.7-3.4-9.3-3.4-15.6s1.1-12.9,3.4-15.6ZM35.8,45.1c-1.7,0-3.1-1.4-3.1-3.1s1.4-3.1,3.1-3.1,3.1,1.4,3.1,3.1-1.4,3.1-3.1,3.1Z"/>
        </g>
      </g>
    </g>
  </g>
</svg>