<?xml version="1.0" encoding="UTF-8"?>
<svg id="_Слой_2" data-name="Слой 2" xmlns="http://www.w3.org/2000/svg" viewBox="0 0 100 100">
  <defs>
    <style>
      .cls-1 {
        fill: #fff;
      }

      .cls-1, .cls-2 {
        stroke-width: 0px;
      }

      .cls-2 {
        fill: #3890fe;
      }
    </style>
  </defs>
  <g id="_1" data-name="1">
    <g>
      <rect class="cls-2" width="100" height="100"/>
      <g id="D89_Business_chart_finance_graphical_pie" data-name="D89, Business, chart, finance, graphical, pie">
        <g>
          <path class="cls-1" d="M40.1,49.5c0-5,3.9-9,8.8-9.4v-18.7c-15.2.3-27.5,12.8-27.5,28.1,0,7.5,3,14.4,7.8,19.4l12.2-14.7c-.8-1.4-1.3-3-1.3-4.7Z"/>
          <path class="cls-1" d="M49.5,58.9c-3,0-5.6-1.4-7.4-3.6l-12,14.5c5.1,4.8,11.9,7.8,19.4,7.8s14.4-3,19.4-7.8l-12-14.5c-1.8,2.2-4.4,3.6-7.4,3.6Z"/>
          <path class="cls-1" d="M41.4,49.5c0,4.5,3.6,8.1,8.1,8.1s8.1-3.6,8.1-8.1-3.6-8.1-8.1-8.1-8.1,3.6-8.1,8.1Z"/>
          <path class="cls-1" d="M50.1,21.4v18.8c4.9.3,8.8,4.4,8.8,9.4,0,1.7-.5,3.3-1.3,4.7l12.2,14.7c4.8-5.1,7.8-11.9,7.8-19.4,0-15.4-12.3-27.9-27.5-28.2Z"/>
        </g>
      </g>
    </g>
  </g>
</svg>