<?xml version="1.0" encoding="UTF-8"?>
<svg id="_Слой_2" data-name="Слой 2" xmlns="http://www.w3.org/2000/svg" viewBox="0 0 100 100">
  <defs>
    <style>
      .cls-1 {
        fill: #fff;
      }

      .cls-1, .cls-2 {
        stroke-width: 0px;
      }

      .cls-2 {
        fill: #3890fe;
      }
    </style>
  </defs>
  <g id="_1" data-name="1">
    <g>
      <rect class="cls-2" width="100" height="100"/>
      <g id="D96_Board_performance" data-name="D96, Board, performance">
        <path class="cls-1" d="M63.5,31.6h-.1q0,.1.1,0h0Z"/>
        <path class="cls-1" d="M78.3,20.1H20.8c-.3,0-.6.3-.6.6s.3.6.6.6h4.4v29.5c0,6.9,5.4,12.5,12.1,12.9l-7.1,14.3c-.2.3,0,.7.3.8.1,0,.2.1.3.1.2,0,.5-.1.6-.3l7.3-14.7h20.5l7.3,14.7c.1.2.3.3.6.3.1,0,.2,0,.3-.1.3-.2.4-.5.3-.8l-7-14.1h.4c7.1,0,13-5.8,13-13v-29.5h4.4c.3,0,.6-.3.6-.6s-.5-.7-.8-.7ZM64.5,37.6h0c-.4,0-.6-.2-.7-.6l-.3-4.1-7.3,13.4c-.1.2-.4.4-.7.3l-13.4-2.4-7.3,8.5c-.1.1-.3.2-.5.2-.1,0-.3,0-.4-.2-.3-.2-.3-.6-.1-.9l7.5-8.8c.1-.2.4-.2.6-.2l13.3,2.4,7.4-13.2v-.1l-4.3,1.6c-.3.1-.7,0-.8-.4-.1-.3,0-.7.4-.8l5.8-2.2c.2-.1.4,0,.6.1.2.1.3.3.3.5l.5,6.2c0,.4-.2.7-.6.7Z"/>
      </g>
    </g>
  </g>
</svg>